<?xml version="1.0" encoding="UTF-8"?> <svg xmlns="http://www.w3.org/2000/svg" width="135" height="45" viewBox="0 0 135 45" fill="none"><g id="brand/logo-white"><path id="brand-logo" fill-rule="evenodd" clip-rule="evenodd" d="M97.3198 18.4029C96.6878 21.8897 94.4707 23.1818 90.6395 23.1818H90.5715C87.3917 23.1818 84.951 21.9182 85.6123 18.4029L88.0627 4.82638C88.6559 1.46311 90.9118 0.0475035 94.743 0.0475035H94.8111C97.9908 0.0475035 100.363 1.47261 99.7703 4.82638L99.0118 8.9592H95.1709L95.8321 5.40592C96.0946 3.8193 95.4042 3.33476 94.179 3.33476C92.9538 3.33476 92.0592 3.8193 91.7967 5.40592L89.5505 17.8139C89.249 19.4005 89.9783 19.8851 91.2035 19.8851C92.4287 19.8851 93.2844 19.4005 93.5859 17.8139L94.3152 13.7096H98.1561L97.3198 18.4029ZM122.135 19.6285H124.284L129.652 9.09221L127.172 22.9253H130.877L134.942 0.304024H131.101L124.255 13.4626L122.135 0.304024H118.567L114.502 22.9253H118.071L120.55 9.09221L122.135 19.6285ZM77.9625 27.3315C74.4878 27.3315 71.6519 30.2795 71.6519 33.9033C71.6519 37.2823 76.743 43.4819 77.3237 44.1773L77.9529 44.9314L78.582 44.1773C79.1627 43.4819 84.2538 37.2725 84.2538 33.9033C84.2732 30.2795 81.4469 27.3315 77.9625 27.3315ZM77.9625 36.2735C76.6753 36.2735 75.6299 35.2157 75.6299 33.9131C75.6299 32.6105 76.6753 31.5527 77.9625 31.5527C79.2498 31.5527 80.2952 32.6105 80.2952 33.9131C80.3048 35.2157 79.2595 36.2735 77.9625 36.2735ZM88.0673 31.9641C87.9027 30.7888 87.5543 29.6723 87.0413 28.6537L130.829 28.7516L130.248 32.0424L88.0673 31.9641ZM129.744 35.01L87.6124 35.0101C87.593 35.2059 87.5737 35.4018 87.5349 35.5977C87.3801 36.4498 87.0123 37.3606 86.509 38.3008L129.164 38.2225L129.744 35.01ZM109.368 0.0475035H109.63C112.81 0.0475035 115.183 1.40611 114.589 4.82638L112.139 18.4029C111.507 21.8327 109.29 23.1818 105.459 23.1818H105.196C102.016 23.1818 99.605 21.8232 100.237 18.4029L102.687 4.82638C103.31 1.36811 105.527 0.0475035 109.368 0.0475035ZM105.925 19.8946C107.18 19.8946 108.113 19.4385 108.405 17.8234L110.651 5.41542C110.914 3.8003 110.155 3.34426 108.901 3.34426C107.647 3.34426 106.684 3.8003 106.421 5.41542L104.175 17.8234C103.874 19.4385 104.661 19.8946 105.925 19.8946ZM15.6927 13.7645L16.6608 8.56227C17.0384 6.22363 15.8573 5.37409 14.0179 5.37409C12.1882 5.37409 10.678 6.22363 10.3004 8.56227L9.8164 11.1109C9.49693 13.02 9.87449 14.0891 11.4912 15.0914L15.4798 17.535C18.8197 19.6064 20.6494 21.2004 19.9523 24.9709L18.9843 30.3354C17.9581 36.0723 14.5697 38.0959 8.31585 38.0959H8.20936C3.03974 38.0959 -0.784235 36.1295 0.232265 30.3354L1.41334 23.8541H7.55106L6.52488 29.4859C6.14732 31.7673 7.27999 32.7791 9.16778 32.7791C11.0556 32.7791 12.6142 31.7673 12.9917 29.4859L13.5339 26.565C13.9114 24.5509 13.4274 23.4818 11.7526 22.47L7.82213 20.0264C4.90816 18.2223 2.8074 15.8836 3.40761 12.5905L4.26922 7.70318C5.2954 2.17636 9.22586 0.0572725 14.9376 0.0572725H15.0441C19.6813 0.0572725 23.9312 2.18591 22.9147 7.70318L21.8401 13.7645H15.6927ZM32.344 15.9982L35.0933 0.486818H28.8395L22.208 37.6759H28.4619L31.3759 21.525H38.5398L35.6258 37.6759H41.8797L48.5111 0.486818H42.2573L39.5079 15.9982H32.344ZM47.485 37.6759L54.1164 0.486818H60.3703L53.7388 37.6759H47.485ZM83.7982 8.35227L82.559 15.4159C81.5328 21.0477 77.9218 23.2814 71.6776 23.2814H68.1731L65.5883 37.6759H59.3441L65.9756 0.486818H75.7243C80.8939 0.486818 84.8244 2.72045 83.7982 8.35227ZM77.3894 9.30682C77.8734 6.65318 76.5859 5.90863 74.5335 5.90863H71.2517L69.1509 17.8595H72.4328C74.4754 17.8595 75.9857 17.115 76.4697 14.4614L77.3894 9.30682Z" fill="#563DE6"></path><mask id="mask0" maskUnits="userSpaceOnUse" x="0" y="0" width="135" height="45"><path id="brand-logo_2" fill-rule="evenodd" clip-rule="evenodd" d="M97.3198 18.4029C96.6878 21.8897 94.4707 23.1818 90.6395 23.1818H90.5715C87.3917 23.1818 84.951 21.9182 85.6123 18.4029L88.0627 4.82638C88.6559 1.46311 90.9118 0.0475035 94.743 0.0475035H94.8111C97.9908 0.0475035 100.363 1.47261 99.7703 4.82638L99.0118 8.9592H95.1709L95.8321 5.40592C96.0946 3.8193 95.4042 3.33476 94.179 3.33476C92.9538 3.33476 92.0592 3.8193 91.7967 5.40592L89.5505 17.8139C89.249 19.4005 89.9783 19.8851 91.2035 19.8851C92.4287 19.8851 93.2844 19.4005 93.5859 17.8139L94.3152 13.7096H98.1561L97.3198 18.4029ZM122.135 19.6285H124.284L129.652 9.09221L127.172 22.9253H130.877L134.942 0.304024H131.101L124.255 13.4626L122.135 0.304024H118.567L114.502 22.9253H118.071L120.55 9.09221L122.135 19.6285ZM77.9625 27.3315C74.4878 27.3315 71.6519 30.2795 71.6519 33.9033C71.6519 37.2823 76.743 43.4819 77.3237 44.1773L77.9529 44.9314L78.582 44.1773C79.1627 43.4819 84.2538 37.2725 84.2538 33.9033C84.2732 30.2795 81.4469 27.3315 77.9625 27.3315ZM77.9625 36.2735C76.6753 36.2735 75.6299 35.2157 75.6299 33.9131C75.6299 32.6105 76.6753 31.5527 77.9625 31.5527C79.2498 31.5527 80.2952 32.6105 80.2952 33.9131C80.3048 35.2157 79.2595 36.2735 77.9625 36.2735ZM88.0673 31.9641C87.9027 30.7888 87.5543 29.6723 87.0413 28.6537L130.829 28.7516L130.248 32.0424L88.0673 31.9641ZM129.744 35.01L87.6124 35.0101C87.593 35.2059 87.5737 35.4018 87.5349 35.5977C87.3801 36.4498 87.0123 37.3606 86.509 38.3008L129.164 38.2225L129.744 35.01ZM109.368 0.0475035H109.63C112.81 0.0475035 115.183 1.40611 114.589 4.82638L112.139 18.4029C111.507 21.8327 109.29 23.1818 105.459 23.1818H105.196C102.016 23.1818 99.605 21.8232 100.237 18.4029L102.687 4.82638C103.31 1.36811 105.527 0.0475035 109.368 0.0475035ZM105.925 19.8946C107.18 19.8946 108.113 19.4385 108.405 17.8234L110.651 5.41542C110.914 3.8003 110.155 3.34426 108.901 3.34426C107.647 3.34426 106.684 3.8003 106.421 5.41542L104.175 17.8234C103.874 19.4385 104.661 19.8946 105.925 19.8946ZM15.6927 13.7645L16.6608 8.56227C17.0384 6.22363 15.8573 5.37409 14.0179 5.37409C12.1882 5.37409 10.678 6.22363 10.3004 8.56227L9.8164 11.1109C9.49693 13.02 9.87449 14.0891 11.4912 15.0914L15.4798 17.535C18.8197 19.6064 20.6494 21.2004 19.9523 24.9709L18.9843 30.3354C17.9581 36.0723 14.5697 38.0959 8.31585 38.0959H8.20936C3.03974 38.0959 -0.784235 36.1295 0.232265 30.3354L1.41334 23.8541H7.55106L6.52488 29.4859C6.14732 31.7673 7.27999 32.7791 9.16778 32.7791C11.0556 32.7791 12.6142 31.7673 12.9917 29.4859L13.5339 26.565C13.9114 24.5509 13.4274 23.4818 11.7526 22.47L7.82213 20.0264C4.90816 18.2223 2.8074 15.8836 3.40761 12.5905L4.26922 7.70318C5.2954 2.17636 9.22586 0.0572725 14.9376 0.0572725H15.0441C19.6813 0.0572725 23.9312 2.18591 22.9147 7.70318L21.8401 13.7645H15.6927ZM32.344 15.9982L35.0933 0.486818H28.8395L22.208 37.6759H28.4619L31.3759 21.525H38.5398L35.6258 37.6759H41.8797L48.5111 0.486818H42.2573L39.5079 15.9982H32.344ZM47.485 37.6759L54.1164 0.486818H60.3703L53.7388 37.6759H47.485ZM83.7982 8.35227L82.559 15.4159C81.5328 21.0477 77.9218 23.2814 71.6776 23.2814H68.1731L65.5883 37.6759H59.3441L65.9756 0.486818H75.7243C80.8939 0.486818 84.8244 2.72045 83.7982 8.35227ZM77.3894 9.30682C77.8734 6.65318 76.5859 5.90863 74.5335 5.90863H71.2517L69.1509 17.8595H72.4328C74.4754 17.8595 75.9857 17.115 76.4697 14.4614L77.3894 9.30682Z" fill="white"></path></mask><g mask="url(#mask0)"> </g></g></svg> 